<svg xmlns="http://www.w3.org/2000/svg" viewBox="0 0 613.87 375.22"><defs><style>.cls-1{fill:#d7eafa;}.cls-2{fill:#f2f1ef;stroke:#dedddc;}.cls-10,.cls-11,.cls-12,.cls-2,.cls-21,.cls-23{stroke-miterlimit:10;}.cls-3{fill:#e6e5e3;}.cls-4{fill:#f8554a;}.cls-5{fill:#fec107;}.cls-6{fill:#00857c;}.cls-7{fill:#282828;}.cls-8{fill:#ffb1a5;}.cls-9{fill:#005685;}.cls-10,.cls-11,.cls-12,.cls-21,.cls-22,.cls-23,.cls-24{fill:none;stroke-linecap:round;}.cls-10{stroke:#0068a1;}.cls-10,.cls-11,.cls-12{stroke-width:0.7px;}.cls-11,.cls-21,.cls-22{stroke:#fff;}.cls-12{stroke:#616161;}.cls-13{fill:#ffb2ab;}.cls-14{fill:#c98cd2;}.cls-15{fill:#252a26;}.cls-16{fill:#fff;}.cls-17{fill:#f4968e;}.cls-18{fill:#f8c4b5;}.cls-19{fill:#616161;}.cls-20{fill:#4d9ee3;}.cls-21,.cls-22,.cls-23,.cls-24{stroke-width:4px;}.cls-22,.cls-24{stroke-linejoin:round;}.cls-23,.cls-24{stroke:#4d9ee3;}.cls-25{fill:#cbe4fa;}.cls-26{fill:#b878c2;}.cls-27{fill:#efd8f2;}.cls-28{fill:#57ada7;}.cls-29{fill:#a1d9d5;}</style></defs><g id="OBJECTS"><path class="cls-1" d="M190.12,374H117.63a1.79,1.79,0,0,1-1.79-1.79h0a1.8,1.8,0,0,1,1.79-1.8h72.49a1.8,1.8,0,0,1,1.79,1.8h0A1.79,1.79,0,0,1,190.12,374Z" transform="translate(-68.07 -51.53)"/><path class="cls-1" d="M640,387.2H567.49a1.79,1.79,0,0,1-1.79-1.79h0a1.79,1.79,0,0,1,1.79-1.79H640a1.79,1.79,0,0,1,1.79,1.79h0A1.79,1.79,0,0,1,640,387.2Z" transform="translate(-68.07 -51.53)"/><path class="cls-1" d="M231.24,97.84a3,3,0,0,1-2.86-3.11v0c0-9.66,5.94-17.49,13.28-17.49A10.8,10.8,0,0,1,248,79.32c2.71-8.87,9.29-15.14,17-15.14a14.45,14.45,0,0,1,6.79,1.73c3.9-4.86,9.16-7.85,15-7.85,7.89,0,14.8,5.54,18.61,13.83,3.35-4.74,8.11-7.71,13.4-7.71,10.13,0,18.33,10.81,18.33,24.15a31.59,31.59,0,0,1-.82,7.18,2.91,2.91,0,0,1-2.76,2.33Z" transform="translate(-68.07 -51.53)"/><path class="cls-1" d="M499.25,116.71a2.83,2.83,0,0,0,2.87-2.75v0c0-8.51-5.95-15.42-13.28-15.42a11.78,11.78,0,0,0-6.33,1.87c-2.71-7.82-9.3-13.35-17-13.35a16.07,16.07,0,0,0-6.8,1.53,20.14,20.14,0,0,0-14.94-6.92c-7.9,0-14.8,4.88-18.61,12.18A17.23,17.23,0,0,0,411.76,87c-10.13,0-18.34,9.53-18.34,21.29a24.3,24.3,0,0,0,.83,6.33,2.85,2.85,0,0,0,2.76,2.06Z" transform="translate(-68.07 -51.53)"/><path class="cls-1" d="M262.43,110.36h-72.5a1.79,1.79,0,0,1-1.79-1.79h0a1.8,1.8,0,0,1,1.79-1.8h72.5a1.8,1.8,0,0,1,1.79,1.8h0A1.79,1.79,0,0,1,262.43,110.36Z" transform="translate(-68.07 -51.53)"/><path class="cls-1" d="M537.62,127.23H482a1.79,1.79,0,0,1-1.79-1.79h0a1.79,1.79,0,0,1,1.79-1.79h55.64a1.79,1.79,0,0,1,1.79,1.79h0A1.79,1.79,0,0,1,537.62,127.23Z" transform="translate(-68.07 -51.53)"/><ellipse class="cls-1" cx="305.97" cy="356.09" rx="245.1" ry="19.12"/><path class="cls-2" d="M603.25,147V402.39H158.51V147a11.78,11.78,0,0,1,11.78-11.77H591.48A11.77,11.77,0,0,1,603.25,147Z" transform="translate(-68.07 -51.53)"/><path class="cls-3" d="M603.25,147v7.75H158.51V147a11.78,11.78,0,0,1,11.78-11.77H591.48A11.77,11.77,0,0,1,603.25,147Z" transform="translate(-68.07 -51.53)"/><path class="cls-4" d="M175.25,145.14a3.14,3.14,0,1,1-3.14-3.15A3.15,3.15,0,0,1,175.25,145.14Z" transform="translate(-68.07 -51.53)"/><path class="cls-5" d="M191.29,145.14a3.15,3.15,0,1,1-3.15-3.15A3.15,3.15,0,0,1,191.29,145.14Z" transform="translate(-68.07 -51.53)"/><path class="cls-6" d="M208.26,145.14a3.15,3.15,0,1,1-3.14-3.15A3.15,3.15,0,0,1,208.26,145.14Z" transform="translate(-68.07 -51.53)"/><rect class="cls-3" x="116.65" y="238.2" width="149.95" height="69.79"/><rect class="cls-3" x="116.65" y="149.07" width="67.16" height="69.79"/><rect class="cls-3" x="198.09" y="149.07" width="67.16" height="69.79"/><rect class="cls-3" x="358.86" y="149.07" width="67.16" height="69.79"/><rect class="cls-3" x="440.3" y="149.07" width="67.16" height="69.79"/><rect class="cls-3" x="359.03" y="238.2" width="149.95" height="69.79"/><path class="cls-7" d="M228.51,412.52H201a2.25,2.25,0,0,1-2.25-2.25v-.43a5.09,5.09,0,0,1,3-4.66l17.7-7.82,12.32.3,1.35,9.51A4.69,4.69,0,0,1,228.51,412.52Z" transform="translate(-68.07 -51.53)"/><path class="cls-7" d="M266.1,412.52h27.52a2.24,2.24,0,0,0,2.24-2.25v-.43a5.1,5.1,0,0,0-3-4.66l-17.71-7.82-12.32.3-1.35,9.51A4.69,4.69,0,0,0,266.1,412.52Z" transform="translate(-68.07 -51.53)"/><path class="cls-8" d="M151.41,333.8h12.47a0,0,0,0,1,0,0v9.62a5,5,0,0,1-5,5h-2.56a5,5,0,0,1-5-5V333.8A0,0,0,0,1,151.41,333.8Z"/><path class="cls-8" d="M267.61,385.33h2.56a5,5,0,0,1,5,5v9.62a0,0,0,0,1,0,0H262.65a0,0,0,0,1,0,0v-9.62A5,5,0,0,1,267.61,385.33Z" transform="translate(469.71 733.71) rotate(180)"/><path class="cls-9" d="M232.09,274.47,215.87,387s5.71,2.4,9.32,2.4a85.53,85.53,0,0,0,10.52-1.2l10.6-75.44,12.54,76.34s7.22,2.4,11.12,2.4a24.22,24.22,0,0,0,8.12-1.8L261.94,275.48Z" transform="translate(-68.07 -51.53)"/><path class="cls-10" d="M238.05,294.06s-.61,16.77-6.71,18.6" transform="translate(-68.07 -51.53)"/><path class="cls-10" d="M254.52,294.67s4,18,10.07,18" transform="translate(-68.07 -51.53)"/><path class="cls-11" d="M247.35,296.27a1.3,1.3,0,1,1-1.29-1.3A1.3,1.3,0,0,1,247.35,296.27Z" transform="translate(-68.07 -51.53)"/><path class="cls-12" d="M199.92,409.36s29,1.42,31.21-1.22" transform="translate(-68.07 -51.53)"/><path class="cls-12" d="M293.87,409.36s-29,1.42-31.22-1.22" transform="translate(-68.07 -51.53)"/><path class="cls-13" d="M329.43,176.67c-1-.57-4.92,4.11-4.92,4.11s4.32-8.75,2.9-9.2-4.93,8.29-4.93,8.29,3.58-9.82,2-10-4.32,9.33-4.32,9.33,1.44-7.31-.08-7.13-2,7.31-2,7.31.14-2.75-1.19-3.25-3.29,7.11-3.29,7.11-19.95,25.83-30.2,33.48a38.93,38.93,0,0,1-6,3.68c.45,1.61,2.54,9.05,3.81,14.39,6.05-3.85,12.44-8.32,16.82-12.46,10.81-10.22,22.5-34.07,22.5-34.07S330.45,177.23,329.43,176.67Z" transform="translate(-68.07 -51.53)"/><path class="cls-13" d="M212.85,250.07a12.6,12.6,0,0,1-7,2.77c-10.46.78-21.15-4.38-21.46-4.53,0,0-5.29-6.1-6.2-5s.61,3.4.61,3.4-4-5.91-5.41-5.31,3.5,6.21,3.5,6.21-7.11-6.81-8.41-5.91,6.71,7.62,6.71,7.62-7.42-5.81-8.42-4.71,7.12,6.51,7.12,6.51-5.71-2.1-6.32-1.1,12.79,7.27,12.79,7.27c1.4.71,19,9.32,31.51,6.55a28.76,28.76,0,0,0,5.92-2Z" transform="translate(-68.07 -51.53)"/><path class="cls-14" d="M282.18,239.86a40.55,40.55,0,0,0-1-5c-1.27-5.34-3.36-12.78-3.81-14.39-.05-.2-.09-.31-.09-.31s-13.14,4.53-17.4,4.7l-1.13,0a31.42,31.42,0,0,1-4.18-.17L242,224.49a17.46,17.46,0,0,0-4.35.58,21.89,21.89,0,0,0-11.16,6.73c-5,5.54-8,13.73-13.39,18.09h0l-.23.13,0,0,4.93,11.78,1.35,3.23s6.37.06,10.68-11.9l-7.62,38.52,47.38,1.22-5.36-47.65C269.44,244.54,282.34,242.45,282.18,239.86Z" transform="translate(-68.07 -51.53)"/><path class="cls-13" d="M255,208.6v15.71a5.75,5.75,0,0,1-.45.39c-1,.82-3.48,2.68-6,2.83h-.3a3.71,3.71,0,0,1-.47,0c-2.65-.23-5.17-2.38-5.86-3l-.19-.18V208.6Z" transform="translate(-68.07 -51.53)"/><path class="cls-15" d="M255,216.72v5c-9.86-1.81-13-12.42-13.22-13.08C243.25,212.43,250.67,215.33,255,216.72Z" transform="translate(-68.07 -51.53)"/><path class="cls-13" d="M265.25,192.37v13.82a11.87,11.87,0,0,1-11.87,11.88,12.24,12.24,0,0,1-2.52-.27,11.88,11.88,0,0,1-9.36-11.61v-2.31a3.49,3.49,0,0,1-2.74-5.8,3,3,0,0,1,2.74-.74v-5a11.88,11.88,0,1,1,23.75,0Z" transform="translate(-68.07 -51.53)"/><path class="cls-15" d="M243.69,197.14s2.9-2.6,3.13-5.19a52.65,52.65,0,0,0,0-6.33s-4.5,0-4.81-.91-2.82,4.72-2.06,8.23a20,20,0,0,1,.69,4.58A2.59,2.59,0,0,0,243.69,197.14Z" transform="translate(-68.07 -51.53)"/><path class="cls-15" d="M247.35,188.06c3.13-2.29,5.42,1.75,7.86,2.59s2.36-1.52,5.26-.91,5,4.27,9,2.44,4.34-7.86,4.34-7.86-4.8,0-5.56-2-2-7.32-4.35-7.32-4.35,2.36-5.87,1.6-2.29-4-4.73-3.81-3.66,3.58-6.71,3.74-5.64.83-5.87,3-.31,5,1.68,5.87S244.23,190.35,247.35,188.06Z" transform="translate(-68.07 -51.53)"/><path class="cls-7" d="M253.68,203.15c-1.41,0-1.91-1.36-1.91-2.63a.26.26,0,0,1,.51,0c0,.36.07,2.11,1.4,2.11s1.39-1.75,1.39-2.11a.26.26,0,0,1,.52,0C255.59,201.79,255.09,203.15,253.68,203.15Z" transform="translate(-68.07 -51.53)"/><path class="cls-7" d="M261.34,203.15c-1.41,0-1.91-1.36-1.91-2.63a.26.26,0,0,1,.52,0c0,.36.06,2.11,1.39,2.11s1.4-1.75,1.4-2.11a.26.26,0,0,1,.51,0C263.25,201.79,262.75,203.15,261.34,203.15Z" transform="translate(-68.07 -51.53)"/><path class="cls-7" d="M251.27,198.62a.43.43,0,0,1-.31-.13.43.43,0,0,1,0-.6,6.3,6.3,0,0,1,2.88-1.66.43.43,0,1,1,.1.85,5.55,5.55,0,0,0-2.38,1.42A.42.42,0,0,1,251.27,198.62Z" transform="translate(-68.07 -51.53)"/><path class="cls-7" d="M263.29,198.36a.45.45,0,0,1-.37-.21,4.57,4.57,0,0,0-1.87-1.55.44.44,0,0,1-.21-.57.42.42,0,0,1,.56-.22,5.61,5.61,0,0,1,2.27,1.9.44.44,0,0,1-.38.65Z" transform="translate(-68.07 -51.53)"/><path class="cls-7" d="M257.66,206.5a2,2,0,0,1-.78-.18.27.27,0,0,1-.14-.34.26.26,0,0,1,.34-.13,1,1,0,0,0,1,0,.9.9,0,0,0,.15-.91,36.57,36.57,0,0,1-.59-4.67.26.26,0,0,1,.24-.27.25.25,0,0,1,.28.23,32.65,32.65,0,0,0,.54,4.5,1.43,1.43,0,0,1-.25,1.48A1.12,1.12,0,0,1,257.66,206.5Z" transform="translate(-68.07 -51.53)"/><path class="cls-16" d="M254.24,208.38s3.38.48,5.3.6c0,0-.4,2.21-1.77,2.93S254.31,211.93,254.24,208.38Z" transform="translate(-68.07 -51.53)"/><circle class="cls-17" cx="182.95" cy="155" r="1.8"/><path class="cls-17" d="M264.31,206.42a1.8,1.8,0,1,1-1.8-1.81A1.8,1.8,0,0,1,264.31,206.42Z" transform="translate(-68.07 -51.53)"/><path class="cls-17" d="M261.58,214.78a11.82,11.82,0,0,1-8.2,3.29,12.24,12.24,0,0,1-2.52-.27l0,0A9.29,9.29,0,0,1,261.58,214.78Z" transform="translate(-68.07 -51.53)"/><path class="cls-7" d="M507.43,409.52h26.82a2.19,2.19,0,0,0,2.19-2.19v-.42a5,5,0,0,0-3-4.54l-17.25-7.63-12,.29-1.31,9.28A4.57,4.57,0,0,0,507.43,409.52Z" transform="translate(-68.07 -51.53)"/><path class="cls-7" d="M470.78,409.52H444a2.19,2.19,0,0,1-2.19-2.19v-.42a5,5,0,0,1,3-4.54L462,394.74l12,.29,1.32,9.28A4.57,4.57,0,0,1,470.78,409.52Z" transform="translate(-68.07 -51.53)"/><path class="cls-18" d="M509,383h2.25a5,5,0,0,1,5,5v9.25a0,0,0,0,1,0,0H504.07a0,0,0,0,1,0,0V388A5,5,0,0,1,509,383Z" transform="translate(952.22 728.71) rotate(180)"/><path class="cls-18" d="M393.91,331.48h12.16a0,0,0,0,1,0,0v9.25a5,5,0,0,1-5,5h-2.25a5,5,0,0,1-5-5v-9.25a0,0,0,0,1,0,0Z"/><path class="cls-7" d="M504.13,274.53l18.23,109.24s-8.18,2.34-11.7,2.34a83.46,83.46,0,0,1-10.26-1.17l-12-73.54-10.55,74.42s-7,2.34-10.84,2.34-10.53-1.75-10.53-1.75l16.62-112.18Z" transform="translate(-68.07 -51.53)"/><path class="cls-19" d="M472.31,402.8a1.83,1.83,0,1,1-1.83-1.83A1.83,1.83,0,0,1,472.31,402.8Z" transform="translate(-68.07 -51.53)"/><path class="cls-19" d="M511,402.8a1.83,1.83,0,1,1-1.83-1.83A1.83,1.83,0,0,1,511,402.8Z" transform="translate(-68.07 -51.53)"/><polygon class="cls-13" points="406.83 214.76 407.64 222.69 433.44 223 434.13 215.37 406.83 214.76"/><path class="cls-13" d="M408.33,182.05c1-.57,4.91,4.12,4.91,4.12s-4.31-8.75-2.89-9.2,4.92,8.29,4.92,8.29-3.57-9.83-2-9.95,4.32,9.33,4.32,9.33-1.44-7.32.08-7.14,2,7.31,2,7.31-.14-2.75,1.19-3.25,3.29,7.11,3.29,7.11,19.95,25.83,30.2,33.48c2,1.48,20.91,3.19,22.91,4.19-.45,1.6-6.45,16.32-7.72,21.65-6.05-3.84-25.44-16.09-29.82-20.22-10.81-10.22-22.5-34.07-22.5-34.07S407.31,182.62,408.33,182.05Z" transform="translate(-68.07 -51.53)"/><path class="cls-13" d="M503.42,229.69c3.36,3.21,17.87,26.38,25.93,27.15,10.45,1,23.72-3,24-3.15,0,0,5.29-6.09,6.19-5s-.6,3.41-.6,3.41,4-5.91,5.41-5.31-3.5,6.21-3.5,6.21,7.11-6.81,8.41-5.91-6.71,7.61-6.71,7.61S570,248.9,571,250s-7.12,6.51-7.12,6.51,5.71-2.1,6.31-1.1-12.78,7.28-12.78,7.28c-1.4.7-18.67,6.44-31.41,5.13-7.84-.81-33.06-22.17-34.83-23l7.22-18.34S500.07,226.49,503.42,229.69Z" transform="translate(-68.07 -51.53)"/><path class="cls-6" d="M504.64,267.52,472,266.3a89.69,89.69,0,0,1-3.4-13.4c-.34-2.06.09-5.16.87-8.54a146,146,0,0,1,6.18-18.64h.61a6.06,6.06,0,0,0,3.61-.78c1,.8,3.84,3.23,6.26,3.37h.29l.47,0c2.58-.23,5-2.33,5.71-2.95a17.49,17.49,0,0,1,4.24.57,19,19,0,0,1,2.16.65c1.61,6,7.58,20.2,7.62,20.65C507.21,254.21,504.64,267.52,504.64,267.52Z" transform="translate(-68.07 -51.53)"/><path class="cls-13" d="M492.79,209.87v15.32l-.18.17c-.68.62-3.13,2.72-5.71,2.95l-.47,0h-.29c-2.42-.14-4.84-1.95-5.81-2.75-.28-.23-.43-.38-.43-.38V209.87Z" transform="translate(-68.07 -51.53)"/><path class="cls-13" d="M493.08,205.27v2.26a11.91,11.91,0,0,1-.41,3.07,11.58,11.58,0,0,1-11.17,8.5,10.49,10.49,0,0,1-1.6-.11,11.59,11.59,0,0,1-10-11.46V194.05a11.57,11.57,0,0,1,3.39-8.19,11.39,11.39,0,0,1,4.36-2.73l.37-.13a11.59,11.59,0,0,1,15,11.05v4.85a2.25,2.25,0,0,0,.33-.08,1.86,1.86,0,0,1,1.67.75C496.94,201.68,496.56,205,493.08,205.27Z" transform="translate(-68.07 -51.53)"/><path class="cls-15" d="M495.9,185.26s-1.73-9.66,2.24-9.76,3.76,3.86,3.76,3.86,2.74-7,6.4-4.27-2.54,8.64-2.54,8.64,5.09-2.54,7.12,0-3.25,4.27-3.25,4.27,4,1.12,2.84,3.26-6.61-.41-6.61-.41,2.85,5.7-.91,5.8-7-5.19-7-5.19Z" transform="translate(-68.07 -51.53)"/><path class="cls-15" d="M495.24,193.59c-.11,2.84-1.15,5.1-2.16,5.31-2.62.53-2.36-1.65-2.36-1.65a4.41,4.41,0,0,1-4.07.62c-2.34-.82-1.42-4.68-1.42-4.68s-1.43,1.83-5.09,1.42c-3.25-.36-3.21-2.81-3.17-3.35-.08.34-.48,1.47-2.52,2.23a5.61,5.61,0,0,1-4.58-.4s-3.05-14.34,14.64-11.49c4.13.66,6.8,2.38,8.43,4.49A11.5,11.5,0,0,1,495.24,193.59Z" transform="translate(-68.07 -51.53)"/><path class="cls-4" d="M495.24,193.59a11.5,11.5,0,0,0-2.3-7.5h0s1.62-2.25,3.36-.62S500.83,193.38,495.24,193.59Z" transform="translate(-68.07 -51.53)"/><path class="cls-15" d="M481.21,204.56c-1.38,0-1.87-1.32-1.87-2.56a.26.26,0,0,1,.52,0c0,.34.06,2.05,1.35,2.05s1.36-1.71,1.36-2.05a.26.26,0,1,1,.51,0C483.08,203.24,482.59,204.56,481.21,204.56Z" transform="translate(-68.07 -51.53)"/><path class="cls-15" d="M473.74,204.56c-1.38,0-1.87-1.38-1.87-2.56a.26.26,0,0,1,.52,0c0,.34.06,2.05,1.35,2.05s1.35-1.71,1.35-2.05a.26.26,0,0,1,.26-.26.26.26,0,0,1,.26.26C475.61,203.24,475.12,204.56,473.74,204.56Z" transform="translate(-68.07 -51.53)"/><path class="cls-15" d="M483.56,200.16a.42.42,0,0,1-.3-.12,5.44,5.44,0,0,0-2.32-1.39.42.42,0,0,1-.37-.48.43.43,0,0,1,.48-.37,6.25,6.25,0,0,1,2.81,1.62.43.43,0,0,1,0,.61A.43.43,0,0,1,483.56,200.16Z" transform="translate(-68.07 -51.53)"/><path class="cls-15" d="M471.84,199.9a.43.43,0,0,1-.37-.65,5.44,5.44,0,0,1,2.21-1.86.43.43,0,0,1,.35.79,4.56,4.56,0,0,0-1.82,1.51A.43.43,0,0,1,471.84,199.9Z" transform="translate(-68.07 -51.53)"/><path class="cls-15" d="M477.33,207.83a1.12,1.12,0,0,1-.79-.31,1.4,1.4,0,0,1-.25-1.45,35,35,0,0,0,.53-4.38.25.25,0,0,1,.27-.24.25.25,0,0,1,.24.28,33,33,0,0,1-.57,4.55.85.85,0,0,0,.15.87c.25.26.67.16,1,0a.26.26,0,1,1,.2.48A2.07,2.07,0,0,1,477.33,207.83Z" transform="translate(-68.07 -51.53)"/><path class="cls-16" d="M480.66,209.65s-3.29.48-5.16.59c0,0,.39,2.16,1.72,2.86S480.59,213.12,480.66,209.65Z" transform="translate(-68.07 -51.53)"/><circle class="cls-17" cx="415.34" cy="155.45" r="1.76"/><path class="cls-17" d="M470.84,207.74A1.76,1.76,0,1,0,472.6,206,1.76,1.76,0,0,0,470.84,207.74Z" transform="translate(-68.07 -51.53)"/><path class="cls-17" d="M486.78,217.83a11.56,11.56,0,0,1-13.1-1.79c1.9-.58,8.28-2.16,12.67,1.39A5.63,5.63,0,0,1,486.78,217.83Z" transform="translate(-68.07 -51.53)"/><path class="cls-15" d="M479.9,222.39V219a10.49,10.49,0,0,0,1.6.11,11.58,11.58,0,0,0,11.17-8.5C492.73,210.57,489.37,222.7,479.9,222.39Z" transform="translate(-68.07 -51.53)"/><path class="cls-15" d="M494.53,203.82a.56.56,0,1,1-.56-.56A.56.56,0,0,1,494.53,203.82Z" transform="translate(-68.07 -51.53)"/><path class="cls-20" d="M421.47,104.46a24.3,24.3,0,0,0-3.09.2c0-.46,0-.91,0-1.37A51.75,51.75,0,0,0,316.16,91.94a32.39,32.39,0,1,0-10.27,63.11h113.8V155c.59,0,1.18.07,1.78.07a25.3,25.3,0,1,0,0-50.59Z" transform="translate(-68.07 -51.53)"/><line class="cls-21" x1="302.53" y1="80.01" x2="302.53" y2="27.1"/><polyline class="cls-22" points="282.08 50.33 302.53 26.64 322.46 50.33"/><line class="cls-23" x1="312.82" y1="308.32" x2="312.82" y2="249.11"/><polyline class="cls-24" points="293.57 275.11 313.06 248.59 332.06 275.11"/><rect class="cls-16" x="311.57" y="148.45" width="107.83" height="107.83" transform="translate(7.41 451.54) rotate(-75.01)"/><path class="cls-20" d="M328.05,137.56l102.23,27.37L402.91,267.16,300.68,239.79l27.37-102.23m-1.41-2.45-.52,1.93L298.75,239.28l-.52,1.93,1.93.51L402.4,269.1l1.93.51.52-1.93,27.37-102.23.51-1.93L430.8,163,328.57,135.63l-1.93-.52Z" transform="translate(-68.07 -51.53)"/><path class="cls-25" d="M405.24,180.38a9.24,9.24,0,1,1-6.53-11.32A9.24,9.24,0,0,1,405.24,180.38Z" transform="translate(-68.07 -51.53)"/><path class="cls-25" d="M312.2,232.19s29.85-43,37-41.13,13.55,27.18,13.55,27.18,12.71-10.33,20-8.39,14,45,14,45Z" transform="translate(-68.07 -51.53)"/><path class="cls-25" d="M377.88,184l-47.42-12.15a.23.23,0,0,1-.17-.16.26.26,0,0,1,0-.24c.13-.17,3.32-4.12,6.34-4.12a3,3,0,0,1,1.27.26,17.32,17.32,0,0,1,3.75,2.37,6.4,6.4,0,0,0,2.79,1.57h0c.55,0,1.26-.63,2.08-1.37,1.59-1.42,3.78-3.36,6.93-3.36a8.73,8.73,0,0,1,2.86.51c4.5,1.57,5.46,4.9,6.09,7.1.31,1.09.53,1.87,1,1.93h.32a13.89,13.89,0,0,0,2-.24,20.81,20.81,0,0,1,3.38-.37,6.66,6.66,0,0,1,3.62.91c3.08,1.93,5.28,6.8,5.37,7a.23.23,0,0,1,0,.26.22.22,0,0,1-.19.09Z" transform="translate(-68.07 -51.53)"/><path class="cls-16" d="M353.49,167.08a8.58,8.58,0,0,1,2.77.49c6.77,2.36,5.31,8.82,7.17,9a2,2,0,0,0,.35,0c1.27,0,3.33-.61,5.4-.61a6.42,6.42,0,0,1,3.49.88c3.05,1.91,5.27,6.89,5.27,6.89l-47.42-12.15s3.21-4,6.15-4a2.82,2.82,0,0,1,1.17.24c3.19,1.4,4.75,3.73,6.61,4h.09c1.59,0,4.14-4.73,8.95-4.73m0-.5c-3.25,0-5.47,2-7.1,3.43-.75.67-1.46,1.3-1.85,1.3a6.19,6.19,0,0,1-2.7-1.52,17.3,17.3,0,0,0-3.8-2.4,3.29,3.29,0,0,0-1.37-.28c-3.14,0-6.4,4-6.54,4.22a.52.52,0,0,0-.08.47.49.49,0,0,0,.35.32l47.42,12.15.12,0a.53.53,0,0,0,.39-.18.51.51,0,0,0,.07-.53c-.09-.21-2.33-5.14-5.47-7.11a6.85,6.85,0,0,0-3.75-.95,21.2,21.2,0,0,0-3.42.37,13.44,13.44,0,0,1-2,.24h-.29c-.32,0-.56-.87-.81-1.74-.65-2.26-1.62-5.66-6.25-7.28a8.9,8.9,0,0,0-2.94-.52Z" transform="translate(-68.07 -51.53)"/><path class="cls-25" d="M406.19,208.81h-.07l-36.78-10.27a.26.26,0,0,1-.18-.2.23.23,0,0,1,.1-.24c.14-.11,3.54-2.55,6.39-2.65h.15c1.94,0,3.54,1.31,4.83,2.37a7.4,7.4,0,0,0,1.48,1.06.25.25,0,0,0,.12,0c.31,0,.75-.42,1.26-.91a7.46,7.46,0,0,1,5.41-2.59,8.07,8.07,0,0,1,1.52.15c3.87.73,4.88,3.77,5.54,5.78.28.84.52,1.56.85,1.7a2.44,2.44,0,0,0,1,.16,11.15,11.15,0,0,0,1.51-.14,18,18,0,0,1,2.37-.2,10.56,10.56,0,0,1,1.1.06c2.86.31,3.65,5.41,3.68,5.63a.22.22,0,0,1-.08.22A.23.23,0,0,1,406.19,208.81Z" transform="translate(-68.07 -51.53)"/><path class="cls-16" d="M388.9,195.64a7.93,7.93,0,0,1,1.48.14c5.49,1.05,5,6.9,6.33,7.47a2.78,2.78,0,0,0,1.06.18c1,0,2.31-.34,3.88-.34a10,10,0,0,1,1.07.06c2.7.29,3.47,5.41,3.47,5.41L369.4,198.29s3.45-2.5,6.26-2.6h.14c2.74,0,4.89,2.85,6.21,3.41a.57.57,0,0,0,.22,0c1.17,0,2.63-3.5,6.67-3.5m0-.5a7.71,7.71,0,0,0-5.59,2.66c-.41.4-.87.84-1.08.84a7.24,7.24,0,0,1-1.44-1c-1.25-1-3-2.43-5-2.43h-.16c-2.93.11-6.38,2.59-6.53,2.69a.54.54,0,0,0-.2.5.53.53,0,0,0,.36.39L406.05,209a.34.34,0,0,0,.14,0,.52.52,0,0,0,.33-.12.5.5,0,0,0,.16-.45c0-.23-.86-5.51-3.9-5.84a10.55,10.55,0,0,0-1.13-.06,18.46,18.46,0,0,0-2.41.2,10.76,10.76,0,0,1-1.47.14,2.12,2.12,0,0,1-.86-.14c-.23-.1-.49-.9-.71-1.55-.68-2.07-1.71-5.19-5.73-6a8.67,8.67,0,0,0-1.57-.15Z" transform="translate(-68.07 -51.53)"/><rect class="cls-16" x="82.48" y="199.04" width="101.22" height="101.22" transform="translate(-213.52 247.66) rotate(-72.02)"/><path class="cls-26" d="M101.21,187.15l94.37,30.62L165,312.15,70.59,281.53l30.62-94.38m-1.29-2.52-.62,1.91L68.69,280.91l-.62,1.9,1.9.62,94.38,30.62,1.9.62.61-1.91,30.62-94.37.62-1.9-1.9-.62-94.38-30.62-1.9-.62Z" transform="translate(-68.07 -51.53)"/><circle class="cls-27" cx="163.14" cy="228.33" r="8.66" transform="translate(-153.32 46.22) rotate(-26.72)"/><path class="cls-27" d="M81.74,275s30.05-38.83,36.64-36.7,11.36,26.11,11.36,26.11,12.4-9.06,19.11-6.88,10.93,42.79,10.93,42.79Z" transform="translate(-68.07 -51.53)"/><path class="cls-27" d="M145.66,233.12l-.08,0-43.8-13.68a.24.24,0,0,1-.16-.18.22.22,0,0,1,0-.23c.13-.14,3.18-3.56,6-3.56a2.91,2.91,0,0,1,1.35.31,16.17,16.17,0,0,1,3.4,2.41,6.07,6.07,0,0,0,2.53,1.6h0a4.26,4.26,0,0,0,2-1.18c1.49-1.19,3.53-2.82,6.29-2.82a8,8,0,0,1,3,.63c4.15,1.69,4.88,4.86,5.36,7,.24,1,.41,1.76.85,1.84a4.05,4.05,0,0,0,.52,0,16.19,16.19,0,0,0,1.68-.13,23.09,23.09,0,0,1,2.61-.2,6.69,6.69,0,0,1,3.93,1c2.79,2,4.61,6.63,4.69,6.83a.23.23,0,0,1,0,.26A.25.25,0,0,1,145.66,233.12Z" transform="translate(-68.07 -51.53)"/><path class="cls-16" d="M107.65,215.7a2.71,2.71,0,0,1,1.24.28c2.91,1.47,4.27,3.73,6,4H115c1.45,0,4-4,8.21-4a7.69,7.69,0,0,1,2.93.61c6.22,2.54,4.54,8.51,6.27,8.81a3.13,3.13,0,0,0,.56,0c1.07,0,2.66-.33,4.29-.33a6.42,6.42,0,0,1,3.78,1c2.77,1.94,4.61,6.71,4.61,6.71l-43.8-13.69s3.07-3.48,5.79-3.48m0-.5h0c-2.91,0-6,3.5-6.17,3.65a.51.51,0,0,0-.11.46.52.52,0,0,0,.34.34l43.8,13.69a.4.4,0,0,0,.15,0,.5.5,0,0,0,.46-.68c-.07-.2-1.93-4.94-4.78-6.94a6.85,6.85,0,0,0-4.07-1.1,23.46,23.46,0,0,0-2.64.2A15.88,15.88,0,0,1,133,225a3,3,0,0,1-.47,0c-.29,0-.47-.86-.65-1.65-.47-2-1.25-5.39-5.52-7.13a8.23,8.23,0,0,0-3.12-.65c-2.85,0-4.93,1.66-6.45,2.88a4.9,4.9,0,0,1-1.76,1.12,5.66,5.66,0,0,1-2.45-1.54,16.29,16.29,0,0,0-3.44-2.44,3.21,3.21,0,0,0-1.47-.34Z" transform="translate(-68.07 -51.53)"/><path class="cls-27" d="M170.89,257.69h-.08l-33.93-11.42a.23.23,0,0,1-.17-.2.23.23,0,0,1,.11-.24c.14-.09,3.38-2.17,6-2.17,2,0,3.51,1.43,4.64,2.46a6.65,6.65,0,0,0,1.33,1.06.18.18,0,0,0,.12,0c.28,0,.71-.36,1.19-.79a7.2,7.2,0,0,1,4.86-2.17,7.39,7.39,0,0,1,1.77.22c3.6.88,4.39,3.78,4.92,5.7.22.79.4,1.47.7,1.62a2.56,2.56,0,0,0,1.14.2c.35,0,.74,0,1.16-.06s1.06-.09,1.66-.09a9.18,9.18,0,0,1,1.6.13c2.67.43,3.17,5.25,3.19,5.46a.25.25,0,0,1-.1.22A.27.27,0,0,1,170.89,257.69Z" transform="translate(-68.07 -51.53)"/><path class="cls-16" d="M142.86,243.9h.08c2.63,0,4.55,2.9,5.78,3.5a.46.46,0,0,0,.23,0c1.06,0,2.54-3,6.05-3a7.18,7.18,0,0,1,1.71.21c5.09,1.25,4.34,6.7,5.57,7.3a2.77,2.77,0,0,0,1.25.23c.78,0,1.73-.15,2.82-.15a9.59,9.59,0,0,1,1.56.12c2.51.41,3,5.24,3,5.24L137,246s3.28-2.13,5.9-2.13m0-.5c-2.73,0-6,2.12-6.18,2.21a.5.5,0,0,0-.22.48.48.48,0,0,0,.34.41l33.93,11.42.16,0a.51.51,0,0,0,.31-.11.52.52,0,0,0,.19-.44c0-.21-.54-5.22-3.4-5.68a9.65,9.65,0,0,0-1.64-.13c-.61,0-1.18,0-1.68.09s-.8.06-1.14.06a2.21,2.21,0,0,1-1-.18c-.19-.09-.41-.88-.57-1.46-.54-2-1.36-5-5.1-5.87A7.4,7.4,0,0,0,155,244h0a7.37,7.37,0,0,0-5,2.23c-.37.33-.84.73-1,.73a7,7,0,0,1-1.29-1c-1.15-1.06-2.74-2.5-4.72-2.53Z" transform="translate(-68.07 -51.53)"/><rect class="cls-16" x="558.64" y="191.46" width="107.83" height="107.83" transform="translate(-114.13 153.21) rotate(-18.3)"/><path class="cls-28" d="M646.18,178.52,679.41,279,578.93,312.23,545.7,211.75l100.48-33.23m1.27-2.53-1.9.63L545.07,209.85l-1.9.63.63,1.9L577,312.85l.63,1.9,1.9-.62L680,280.9l1.9-.63-.63-1.9L648.08,177.89l-.63-1.9Z" transform="translate(-68.07 -51.53)"/><path class="cls-29" d="M633.72,205.17a9.24,9.24,0,1,1-11.67-5.87A9.22,9.22,0,0,1,633.72,205.17Z" transform="translate(-68.07 -51.53)"/><path class="cls-29" d="M584.39,299.55s1.33-52.36,8.34-54.68S619,260.16,619,260.16s4.95-15.62,12.1-18,36.41,29.9,36.41,29.9Z" transform="translate(-68.07 -51.53)"/><path class="cls-29" d="M566.47,239.13a.22.22,0,0,1-.15-.06.23.23,0,0,1-.1-.22c0-.27.66-6.8,4.24-7.41a13.74,13.74,0,0,1,2.27-.18c.78,0,1.52.06,2.17.11s1.07.08,1.55.08a3.56,3.56,0,0,0,1.64-.3c.44-.22.7-1.17,1-2.28.7-2.61,1.76-6.54,6.62-7.76a10.1,10.1,0,0,1,2.44-.32c3.16,0,5.12,1.69,6.55,2.92.68.58,1.27,1.09,1.69,1.09a.42.42,0,0,0,.22-.05,10.08,10.08,0,0,0,1.83-1.48c1.61-1.48,3.6-3.33,6.15-3.38h.14c3.61,0,8,2.79,8.19,2.9a.25.25,0,0,1,.11.25.24.24,0,0,1-.16.2l-46.31,15.87Z" transform="translate(-68.07 -51.53)"/><path class="cls-16" d="M604.72,220.14c3.58,0,8.06,2.87,8.06,2.87l-46.31,15.87s.6-6.61,4-7.19a13.65,13.65,0,0,1,2.23-.18c1.43,0,2.67.19,3.72.19a3.88,3.88,0,0,0,1.75-.33c1.68-.83.61-8.28,7.56-10a10,10,0,0,1,2.38-.31c4.76,0,6.8,4,8.24,4a.78.78,0,0,0,.33-.07c1.67-.84,4.28-4.76,7.87-4.84h.14m0-.5h-.15c-2.64.06-4.76,2-6.31,3.45a9.86,9.86,0,0,1-1.77,1.44.22.22,0,0,1-.11,0c-.33,0-.91-.5-1.53-1a9.89,9.89,0,0,0-6.71-3,10.25,10.25,0,0,0-2.51.33c-5,1.25-6.08,5.27-6.79,7.93-.26,1-.52,2-.86,2.13a3.36,3.36,0,0,1-1.53.27c-.46,0-1,0-1.53-.08s-1.4-.11-2.19-.11a13.17,13.17,0,0,0-2.31.19c-3.77.63-4.42,7.35-4.45,7.63a.52.52,0,0,0,.19.44.51.51,0,0,0,.31.11.41.41,0,0,0,.16,0l46.31-15.87a.51.51,0,0,0,.11-.9c-.19-.12-4.65-2.94-8.33-2.94Z" transform="translate(-68.07 -51.53)"/><path class="cls-29" d="M613.6,240.06a.23.23,0,0,1-.18-.07.27.27,0,0,1-.06-.27c.07-.16,1.57-4.06,3.89-5.72a5.65,5.65,0,0,1,3.35-.89,19.85,19.85,0,0,1,2.12.14,12.69,12.69,0,0,0,1.37.11,3.19,3.19,0,0,0,.45,0c.34-.06.48-.7.66-1.5.4-1.76,1-4.41,4.46-5.85a6.62,6.62,0,0,1,2.56-.54,8.42,8.42,0,0,1,5.24,2.33,3.83,3.83,0,0,0,1.58,1,4.78,4.78,0,0,0,2.14-1.34,13.77,13.77,0,0,1,2.82-2,2.51,2.51,0,0,1,1.16-.27c2.34,0,4.9,2.83,5,3a.24.24,0,0,1,.06.23.26.26,0,0,1-.17.17l-36.39,11.6Z" transform="translate(-68.07 -51.53)"/><path class="cls-16" d="M645.16,225.35c2.26,0,4.82,2.86,4.82,2.86l-36.38,11.6s1.51-4,3.8-5.6a5.4,5.4,0,0,1,3.2-.85c1.32,0,2.61.25,3.49.25a2.43,2.43,0,0,0,.49,0c1.44-.26,0-5.22,5.17-7.36a6.37,6.37,0,0,1,2.47-.52c3.51,0,5.61,3.29,6.82,3.29h.11c1.43-.26,2.55-2.15,5-3.38a2.23,2.23,0,0,1,1-.24m0-.5a2.85,2.85,0,0,0-1.27.29A14.5,14.5,0,0,0,641,227.2a4.72,4.72,0,0,1-2,1.28h0a3.89,3.89,0,0,1-1.44-.91,8.7,8.7,0,0,0-5.4-2.38,7,7,0,0,0-2.66.56c-3.58,1.48-4.22,4.32-4.6,6-.12.54-.29,1.28-.47,1.31a2.25,2.25,0,0,1-.4,0,12.56,12.56,0,0,1-1.35-.11,19.89,19.89,0,0,0-2.14-.14,5.81,5.81,0,0,0-3.49.94c-2.39,1.7-3.92,5.67-4,5.84a.5.5,0,0,0,.1.52.51.51,0,0,0,.37.15.39.39,0,0,0,.15,0l36.39-11.6a.51.51,0,0,0,.33-.34.53.53,0,0,0-.11-.47c-.11-.12-2.75-3-5.2-3Z" transform="translate(-68.07 -51.53)"/></g></svg>